<svg xmlns="http://www.w3.org/2000/svg" width="80" height="80" viewBox="0 0 80 80" fill="none"><path d="M40.3125 78.5938C61.6272 78.5938 78.9062 61.3147 78.9062 40C78.9062 18.6853 61.6272 1.40625 40.3125 1.40625C18.9978 1.40625 1.71875 18.6853 1.71875 40C1.71875 61.3147 18.9978 78.5938 40.3125 78.5938Z" fill="#ED6744"></path><path d="M13.2871 34.89C14.235 32.8307 15.5286 31.2467 17.1699 30.1374C18.8105 29.0286 20.6387 28.474 22.6556 28.474C24.401 28.474 25.9063 28.8385 27.1706 29.5671C28.4349 30.2962 29.4128 31.278 30.1055 32.5137V28.8066H38.9551V55.4688H30.1055V51.7617C29.4128 52.9974 28.4271 53.9798 27.1484 54.7083C25.8691 55.4375 24.3717 55.8014 22.6562 55.8014C20.6393 55.8014 18.8105 55.2474 17.1706 54.138C15.5293 53.0293 14.2357 51.4375 13.2878 49.3613C12.3392 47.2865 11.8652 44.8704 11.8652 42.1139C11.8652 39.3574 12.3392 36.9499 13.2871 34.89ZM28.7734 38.0742C27.8854 37.0924 26.7936 36.6009 25.5 36.6009C24.1751 36.6009 23.0768 37.0846 22.2038 38.0508C21.3307 39.0176 20.8945 40.3717 20.8945 42.1139C20.8945 43.8249 21.3307 45.179 22.2038 46.1771C23.0762 47.1751 24.1751 47.6745 25.5 47.6745C26.7936 47.6745 27.8854 47.1836 28.7734 46.2005C29.6608 45.2188 30.1055 43.8561 30.1055 42.1139C30.1055 40.403 29.6608 39.0566 28.7734 38.0742Z" fill="white"></path><path d="M53.448 46.6764L58.1882 28.8066H67.6244L58.9109 55.4688H47.8946L39.1804 28.8066H48.6173L53.448 46.6764Z" fill="white"></path></svg>